<svg width="77" height="77" viewBox="0 0 77 77" fill="none" xmlns="http://www.w3.org/2000/svg">
<circle cx="38.5" cy="38.5" r="38.5" fill="white"/>
<g clip-path="url(#clip0_6_33)">
<path d="M36 46.0001C31 47.5001 31 43.5001 29 43.0001M43 49.0001V45.1301C43.0375 44.6532 42.9731 44.1739 42.811 43.7239C42.6489 43.2738 42.3929 42.8635 42.06 42.5201C45.2 42.1701 48.5 40.9801 48.5 35.5201C48.4997 34.1239 47.9627 32.7813 47 31.7701C47.4559 30.5486 47.4236 29.1984 46.91 28.0001C46.91 28.0001 45.73 27.6501 43 29.4801C40.708 28.8589 38.292 28.8589 36 29.4801C33.27 27.6501 32.09 28.0001 32.09 28.0001C31.5764 29.1984 31.5441 30.5486 32 31.7701C31.0301 32.7888 30.4925 34.1435 30.5 35.5501C30.5 40.9701 33.8 42.1601 36.94 42.5501C36.611 42.89 36.3573 43.2955 36.1953 43.74C36.0334 44.1845 35.9668 44.6581 36 45.1301V49.0001" stroke="#83BB9E" stroke-width="2" stroke-linecap="round" stroke-linejoin="round"/>
</g>
<defs>
<clipPath id="clip0_6_33">
<rect width="24" height="24" fill="white" transform="translate(27 27)"/>
</clipPath>
</defs>
</svg>
