<svg width="77" height="77" viewBox="0 0 77 77" fill="none" xmlns="http://www.w3.org/2000/svg">
<circle cx="38.5" cy="38.5" r="38.5" fill="white"/>
<path d="M44 29H34C31.2386 29 29 31.2386 29 34V44C29 46.7614 31.2386 49 34 49H44C46.7614 49 49 46.7614 49 44V34C49 31.2386 46.7614 29 44 29Z" stroke="#83BB9E" stroke-width="2" stroke-linecap="round" stroke-linejoin="round"/>
<path d="M43 38.3701C43.1234 39.2023 42.9812 40.0523 42.5937 40.7991C42.2062 41.5459 41.5931 42.1515 40.8416 42.5297C40.0901 42.908 39.2384 43.0397 38.4077 42.906C37.5771 42.7723 36.8097 42.3801 36.2148 41.7852C35.6199 41.1903 35.2277 40.4229 35.094 39.5923C34.9604 38.7616 35.092 37.91 35.4703 37.1584C35.8485 36.4069 36.4541 35.7938 37.2009 35.4063C37.9477 35.0188 38.7977 34.8766 39.63 35.0001C40.4789 35.1259 41.2648 35.5215 41.8716 36.1284C42.4785 36.7352 42.8741 37.5211 43 38.3701Z" stroke="#83BB9E" stroke-width="2" stroke-linecap="round" stroke-linejoin="round"/>
<path d="M44.5 33.5H44.51" stroke="#83BB9E" stroke-width="2" stroke-linecap="round" stroke-linejoin="round"/>
</svg>
